Coordinates
version=1
nRows=13
nColumns=40
inDegrees=yes

Units are S.I. units (second, meters, Newtons, ...)
If the header above contains a line with 'inDegrees', this indicates whether rotational values are in degrees (yes) or radians (no).

endheader
time	pelvis_tilt	pelvis_list	pelvis_rotation	pelvis_tx	pelvis_ty	pelvis_tz	hip_flexion_r	hip_adduction_r	hip_rotation_r	knee_angle_r	knee_angle_r_beta	ankle_angle_r	subtalar_angle_r	mtp_angle_r	hip_flexion_l	hip_adduction_l	hip_rotation_l	knee_angle_l	knee_angle_l_beta	ankle_angle_l	subtalar_angle_l	mtp_angle_l	lumbar_extension	lumbar_bending	lumbar_rotation	arm_flex_r	arm_add_r	arm_rot_r	elbow_flex_r	pro_sup_r	wrist_flex_r	wrist_dev_r	arm_flex_l	arm_add_l	arm_rot_l	elbow_flex_l	pro_sup_l	wrist_flex_l	wrist_dev_l
      8.70000000	    -19.45033001	     -1.69704843	   -178.25630414	      0.24846885	      0.90975150	     -0.59945018	    -16.54437469	    -10.98961544	    -17.34324669	      4.40209778	      0.07683110	      2.06288538	      0.00000000	      0.00000000	    -15.78782088	     -9.54867780	    -15.06579111	      4.44745529	      0.07762274	      0.15234503	      0.00000000	      0.00000000	    -21.41800340	     -5.77227715	      1.31712929	     16.41107100	    -11.08912554	     83.62744402	      8.69255507	     79.73856115	      0.00000000	      0.00000000	     13.38816505	     -9.10218685	     24.86998468	     13.56171852	     41.95317518	      0.00000000	      0.00000000
      8.70500000	    -19.49363413	     -1.63907092	   -178.24497991	      0.24840731	      0.90976762	     -0.59941675	    -16.60668515	    -10.91843255	    -17.32621710	      4.37170131	      0.07630058	      2.02426948	      0.00000000	      0.00000000	    -15.84695481	     -9.61733645	    -15.09483325	      4.44604572	      0.07759814	      0.16969634	      0.00000000	      0.00000000	    -21.44822876	     -5.70906134	      1.33529792	     16.40630822	    -11.12884104	     83.33054082	      8.74506726	     80.42910534	      0.00000000	      0.00000000	     13.41117223	     -9.02456091	     24.67148947	     13.52396011	     41.57043684	      0.00000000	      0.00000000
      8.71000000	    -19.51274922	     -1.68913245	   -178.26525243	      0.24833966	      0.90977801	     -0.59938223	    -16.62954322	    -10.98452460	    -17.32302063	      4.38752719	      0.07657680	      2.02970567	      0.00000000	      0.00000000	    -15.91119408	     -9.54420346	    -15.10691226	      4.37054501	      0.07628040	      0.13314836	      0.00000000	      0.00000000	    -21.43920298	     -5.75102656	      1.32473472	     16.40926956	    -11.12259025	     83.32506696	      8.72753387	     80.47212004	      0.00000000	      0.00000000	     13.34673900	     -8.98768716	     24.63370846	     13.65428870	     39.26434936	      0.00000000	      0.00000000
      8.71500000	    -19.51093245	     -1.67870690	   -178.25891647	      0.24830729	      0.90974363	     -0.59935929	    -16.65689586	    -10.96275339	    -17.29800565	      4.33014808	      0.07557534	      2.03505102	      0.00000000	      0.00000000	    -15.92236939	     -9.55421296	    -15.11959978	      4.35485291	      0.07600652	      0.14173370	      0.00000000	      0.00000000	    -21.41611847	     -5.73374142	      1.33792110	     16.42080721	    -11.14279238	     83.41162269	      8.74712204	     80.66884842	      0.00000000	      0.00000000	     13.36700533	     -8.92174460	     24.54559273	     13.63148210	     38.50547185	      0.00000000	      0.00000000
      8.72000000	    -19.55753243	     -1.65365292	   -178.26410094	      0.24829553	      0.90978971	     -0.59934005	    -16.72862178	    -10.92866516	    -17.26412307	      4.28477709	      0.07478347	      2.02750675	      0.00000000	      0.00000000	    -16.01734082	     -9.56977655	    -15.14808290	      4.27974199	      0.07469559	      0.11134001	      0.00000000	      0.00000000	    -21.45157905	     -5.69904170	      1.31006881	     16.41127541	    -11.18812944	     83.33420036	      8.84929235	     80.06477759	      0.00000000	      0.00000000	     13.39941890	     -8.77695184	     23.86213801	     13.47836556	     38.43503117	      0.00000000	      0.00000000
      8.72500000	    -19.60834504	     -1.65657059	   -178.24980184	      0.24830912	      0.90982134	     -0.59929096	    -16.78248935	    -10.92495261	    -17.32826238	      4.29098991	      0.07489190	      1.98924567	      0.00000000	      0.00000000	    -16.11131437	     -9.55745939	    -15.17355230	      4.19145581	      0.07315470	      0.12765640	      0.00000000	      0.00000000	    -21.48636926	     -5.70068456	      1.38043075	     16.39205699	    -11.16193963	     83.42773694	      8.72487214	     80.35658566	      0.00000000	      0.00000000	     13.31317663	     -9.10280923	     25.81555060	     13.85091941	     37.14463825	      0.00000000	      0.00000000
      8.73000000	    -19.53902242	     -1.75875113	   -178.27449601	      0.24837710	      0.90974837	     -0.59927624	    -16.70359240	    -11.05493835	    -17.33531673	      4.30478743	      0.07513271	      2.02127352	      0.00000000	      0.00000000	    -16.04205776	     -9.43030732	    -15.22966186	      4.16787344	      0.07274311	      0.04419488	      0.00000000	      0.00000000	    -21.41353333	     -5.81607723	      1.32754655	     16.40460811	    -11.12457999	     83.49843775	      8.71261617	     79.81960665	      0.00000000	      0.00000000	     13.39692305	     -8.87389144	     24.62348747	     13.48514860	     38.54073626	      0.00000000	      0.00000000
      8.73500000	    -19.56636204	     -1.73689129	   -178.23238901	      0.24845368	      0.90977908	     -0.59922767	    -16.78255627	    -11.00288827	    -17.32501943	      4.21106544	      0.07349696	      1.98013491	      0.00000000	      0.00000000	    -16.10296430	     -9.45653651	    -15.18022556	      4.07763396	      0.07116814	     -0.00863716	      0.00000000	      0.00000000	    -21.43927745	     -5.78034806	      1.33082393	     16.40494430	    -11.14129987	     83.34915222	      8.72513209	     79.95207319	      0.00000000	      0.00000000	     13.34726484	     -8.94075161	     25.15209119	     13.79525782	     35.86779364	      0.00000000	      0.00000000
      8.74000000	    -19.57544199	     -1.68400180	   -178.24989262	      0.24848038	      0.90979605	     -0.59934954	    -16.80439099	    -10.93871578	    -17.29282973	      4.16355631	      0.07266777	      1.95705790	      0.00000000	      0.00000000	    -16.15566601	     -9.50102874	    -15.15512608	      4.00671025	      0.06993029	     -0.00048753	      0.00000000	      0.00000000	    -21.45169566	     -5.74035706	      1.29934534	     16.45629262	    -10.99416249	     84.11873074	      8.48003329	     79.20513149	      0.00000000	      0.00000000	     13.31123167	     -8.90264271	     24.45003948	     13.72940613	     37.42360932	      0.00000000	      0.00000000
      8.74500000	    -19.62606039	     -1.64451076	   -178.26022925	      0.24863676	      0.90986726	     -0.59942184	    -16.86376246	    -10.88218548	    -17.22284883	      4.12045294	      0.07191547	      1.89637955	      0.00000000	      0.00000000	    -16.26413810	     -9.52929937	    -15.13279112	      3.87544171	      0.06763922	     -0.09933226	      0.00000000	      0.00000000	    -21.51350306	     -5.71258755	      1.34751738	     16.43136957	    -11.11724042	     83.87944972	      8.73147913	     78.17848299	      0.00000000	      0.00000000	     13.45091700	     -8.82657450	     24.38452490	     13.43136537	     38.77262276	      0.00000000	      0.00000000
      8.75000000	    -19.64905117	     -1.67795272	   -178.23813007	      0.24878641	      0.90986341	     -0.59940649	    -16.89280348	    -10.91202390	    -17.26274932	      4.11805083	      0.07187355	      1.92970529	      0.00000000	      0.00000000	    -16.24845665	     -9.50841168	    -15.14551317	      3.93194416	      0.06862537	     -0.15118861	      0.00000000	      0.00000000	    -21.54132488	     -5.75116618	      1.37946059	     16.48438923	    -11.14269189	     83.51968968	      8.73339530	     79.93367167	      0.00000000	      0.00000000	     13.45072129	     -9.05725329	     25.98685894	     13.61877921	     37.71673215	      0.00000000	      0.00000000
      8.75500000	    -19.69570134	     -1.66861367	   -178.28431908	      0.24889691	      0.90993396	     -0.59958296	    -16.94204920	    -10.89627957	    -17.18575307	      4.07517368	      0.07112520	      1.87421851	      0.00000000	      0.00000000	    -16.35324134	     -9.50404210	    -15.14574633	      3.83254049	      0.06689045	     -0.12168766	      0.00000000	      0.00000000	    -21.59932704	     -5.76720447	      1.42651644	     16.47191100	    -11.10801376	     83.41619211	      8.70483422	     79.47607773	      0.00000000	      0.00000000	     13.50411634	     -9.00832711	     25.61023445	     13.50264726	     38.57360922	      0.00000000	      0.00000000
      8.76000000	    -19.69556509	     -1.70917750	   -178.26337773	      0.24899989	      0.90990657	     -0.59959461	    -16.95031430	    -10.92686230	    -17.13779850	      4.06434608	      0.07093622	      1.90822561	      0.00000000	      0.00000000	    -16.34295932	     -9.46285407	    -15.10196935	      3.81968071	      0.06666600	     -0.14891479	      0.00000000	      0.00000000	    -21.61014654	     -5.81556698	      1.42954616	     16.49412858	    -11.09514387	     83.19588254	      8.68156783	     80.10747295	      0.00000000	      0.00000000	     13.47072643	     -9.18876719	     26.58834911	     13.72625979	     37.68274727	      0.00000000	      0.00000000
